/vscmnt/brussel_pixiu_data/_data_brussel/112/vsc11236/PredSimResults/SUBJ07mtu3D/weighted-expIG/worker_02.mot
version=1
nRows=10
nColumns=50
inDegrees=yes
endheader
                time	         pelvis_tilt	         pelvis_list	     pelvis_rotation	           pelvis_tx	           pelvis_ty	           pelvis_tz	       hip_flexion_r	     hip_adduction_r	      hip_rotation_r	        knee_angle_r	       ankle_angle_r	         mtp_angle_r	       hip_flexion_l	     hip_adduction_l	      hip_rotation_l	        knee_angle_l	       ankle_angle_l	         mtp_angle_l	    lumbar_extension	      lumbar_bending	     lumbar_rotation	 ercspn_r/activation	 intobl_r/activation	 extobl_r/activation	    abd_r/activation	    add_r/activation	hamstrings_r/activation	bifemsh_r/activation	glut_max_r/activation	iliopsoas_r/activation	rect_fem_r/activation	  vasti_r/activation	gastroc_r/activation	 soleus_r/activation	tib_ant_r/activation	 ercspn_l/activation	 intobl_l/activation	 extobl_l/activation	    abd_l/activation	    add_l/activation	hamstrings_l/activation	bifemsh_l/activation	glut_max_l/activation	iliopsoas_l/activation	rect_fem_l/activation	  vasti_l/activation	gastroc_l/activation	 soleus_l/activation	tib_ant_l/activation	
          1.09111950	         -6.55883558	         -3.82762645	          9.01891582	          1.40754415	          0.84405750	         -0.01221923	         31.50935102	         -0.23404548	         -7.07732686	         -3.38214231	          7.62286141	          0.25078907	        -13.23913552	         -4.45248468	          5.08510900	         -7.26079479	          7.99121268	         28.45434843	         -6.97432352	          2.26541368	         -3.81037940	          0.10305730	          0.18048283	          0.02637507	          0.01181852	          0.13177910	          0.08059476	          0.22290027	          0.00999999	          0.08776589	          0.00999999	          0.00999999	          0.02556177	          0.01000001	          0.27243312	          0.03294227	          0.00999999	          0.00999999	          0.03395590	          0.05168825	          0.03143295	          0.15035436	          0.02762157	          0.40051137	          0.00999999	          0.00999999	          0.27489787	          0.26280672	          0.02098329	
          1.10203069	         -6.62295234	         -3.68822834	          8.90308797	          1.42401551	          0.84217542	         -0.01195211	         31.64469951	         -0.01476299	         -6.26441686	         -5.25204169	          7.30437128	          0.25112993	        -13.25994286	         -4.30181488	          4.56133365	         -9.23781504	          7.25068558	         30.23041199	         -6.79051416	          2.70016011	         -3.89698265	          0.08719974	          0.15271171	          0.02231670	          0.00999999	          0.21278814	          0.06819355	          0.18860233	          0.08720273	          0.07426125	          0.00999999	          0.00999999	          0.02486094	          0.01553441	          0.27742375	          0.10335749	          0.00999999	          0.00999999	          0.02873106	          0.10161586	          0.02659632	          0.12721914	          0.02337140	          0.42316604	          0.00999999	          0.00999999	          0.23259899	          0.24366909	          0.01775457	
          1.11294189	         -6.66919704	         -3.55557557	          8.73060512	          1.44078414	          0.84042689	         -0.01167957	         31.57017129	          0.16056931	         -5.39550019	         -7.03095608	          6.94653893	          0.23648303	        -13.09320651	         -4.13834995	          3.97795853	        -11.62843183	          6.41211037	         31.90870871	         -6.58779588	          3.16425310	         -3.95417994	          0.07471948	          0.12921377	          0.01888280	          0.07613032	          0.19818722	          0.07077262	          0.15958185	          0.10718529	          0.06283457	          0.00999999	          0.00999999	          0.02103555	          0.01314411	          0.32609285	          0.13184170	          0.00999999	          0.00999999	          0.02431018	          0.09237765	          0.02250391	          0.10764377	          0.01977521	          0.39781126	          0.00999999	          0.00999999	          0.19680869	          0.21181052	          0.01502265	
          1.12385308	         -6.70102835	         -3.42250984	          8.50120237	          1.45762654	          0.83899549	         -0.01131177	         31.31564951	          0.34924572	         -4.60995285	         -8.49230797	          6.47011669	          0.22323778	        -12.66521094	         -3.96476740	          3.35067457	        -14.51332966	          5.43040221	         33.36030304	         -6.39032740	          3.63119231	         -3.98340104	          0.09141845	          0.10933148	          0.01597728	          0.12937119	          0.20238477	          0.06208694	          0.13502679	          0.14739875	          0.05316614	          0.00999999	          0.00999999	          0.01779879	          0.01112161	          0.35332191	          0.15894563	          0.00999999	          0.00999999	          0.02056954	          0.09867721	          0.01904121	          0.09108049	          0.01673238	          0.37448098	          0.00999999	          0.00999999	          0.16652549	          0.17921897	          0.01271109	
          1.13476428	         -6.71929696	         -3.29293575	          8.22043478	          1.47431736	          0.83804319	         -0.01085499	         30.98374584	          0.55900092	         -3.92494210	         -9.82806987	          6.04942889	          0.20711273	        -11.92924222	         -3.79267414	          2.68032954	        -17.92485994	          4.30356055	         34.33122594	         -6.21919516	          4.10474314	         -3.98320108	          0.08817486	          0.09250851	          0.01351884	          0.15659930	          0.19569479	          0.05253355	          0.11425005	          0.16601545	          0.04498540	          0.00999999	          0.03046951	          0.01506007	          0.00999999	          0.37550310	          0.18789487	          0.00999999	          0.00999999	          0.01740448	          0.10074100	          0.01611131	          0.07706582	          0.01415774	          0.32404105	          0.00999999	          0.00999999	          0.14090200	          0.15164232	          0.01075522	
          1.14567547	         -6.72482153	         -3.16869266	          7.89048451	          1.49071973	          0.83769199	         -0.01032601	         30.62063695	          0.78094086	         -3.33966669	        -11.11617836	          5.77034150	          0.19113410	        -10.87558314	         -3.63585057	          1.96316784	        -21.83443816	          3.00919770	         34.57346503	         -6.08496223	          4.58502024	         -3.95217418	          0.07460729	          0.07827411	          0.01143868	          0.17092909	          0.17567648	          0.05199723	          0.09667025	          0.16112660	          0.03806344	          0.00999999	          0.10908563	          0.01274275	          0.00999999	          0.38617752	          0.21576491	          0.00999999	          0.00999999	          0.01472643	          0.11439807	          0.01363225	          0.06520761	          0.01197927	          0.27418044	          0.00999999	          0.00999999	          0.11922123	          0.12830892	          0.00999999	
          1.15658667	         -6.72077191	         -3.04001865	          7.51029270	          1.50676686	          0.83806204	         -0.00974862	         30.18329667	          1.00137526	         -2.84234949	        -12.26589981	          5.65681145	          0.17458579	         -9.52710793	         -3.49437527	          1.20963242	        -26.11544941	          1.35380650	         34.10025179	         -5.99107059	          5.05805598	         -3.89026049	          0.06312737	          0.06622997	          0.00999999	          0.17705264	          0.14864492	          0.05158010	          0.08179548	          0.14137909	          0.03220657	          0.00999999	          0.17767150	          0.01078201	          0.00999999	          0.38275388	          0.21956420	          0.00999999	          0.00999999	          0.01246045	          0.12956804	          0.01153464	          0.05517403	          0.01013601	          0.23199195	          0.00999999	          0.00999999	          0.10087651	          0.10856587	          0.00999999	
          1.16749786	         -6.71013264	         -2.89450055	          7.08028500	          1.52242866	          0.83918160	         -0.00915205	         29.62297811	          1.20908426	         -2.38527156	        -13.18489288	          5.71573971	          0.16240735	         -7.92868664	         -3.36346017	          0.43645920	        -30.61473171	         -0.69106332	         32.75976589	         -5.93925506	          5.50919295	         -3.79689845	          0.05341389	          0.05603908	          0.00999999	          0.18720558	          0.12577274	          0.05065076	          0.06920950	          0.11962491	          0.02725090	          0.00999999	          0.19147498	          0.01181852	          0.01181852	          0.36466387	          0.22490514	          0.02405489	          0.00999999	          0.01054315	          0.11222884	          0.01181852	          0.04668433	          0.00999999	          0.19629506	          0.00999999	          0.00999999	          0.08535452	          0.09186070	          0.04624341	
          1.17840906	         -6.69394410	         -2.73299762	          6.61406596	          1.53768520	          0.84092323	         -0.00855837	         28.94269455	          1.40092745	         -1.92328249	        -13.87138016	          5.91307343	          0.15725574	         -6.14076411	         -3.24925811	         -0.33569356	        -35.22601237	         -2.73976915	         30.10552658	         -5.92864645	          5.93330627	         -3.67762107	          0.04519502	          0.04741628	          0.00999999	          0.19194749	          0.10641993	          0.04846461	          0.05856015	          0.10538818	          0.02305777	          0.00999999	          0.20970834	          0.00999999	          0.00999999	          0.34681577	          0.24119730	          0.06391436	          0.01245105	          0.00999999	          0.09496005	          0.00999999	          0.03950096	          0.00999999	          0.16609089	          0.00999999	          0.00999999	          0.07222091	          0.07772598	          0.17071891	
          1.18932025	         -6.67210147	         -2.55510264	          6.11945863	          1.55254486	          0.84308294	         -0.00797578	         28.14802904	          1.57248120	         -1.43952973	        -14.32288737	          6.17280905	          0.15740241	         -4.26122058	         -3.12804094	         -1.08060432	        -39.80619307	         -3.87703742	         26.34397786	         -5.95597893	          6.31786279	         -3.52939445	          0.03824081	          0.04012028	          0.00999999	          0.18141057	          0.09004496	          0.04664226	          0.04954943	          0.08967931	          0.01950984	          0.00999999	          0.20718867	          0.00999999	          0.00999999	          0.32168237	          0.24761729	          0.06188988	          0.03346651	          0.00999999	          0.08034842	          0.00999999	          0.04822259	          0.00999999	          0.14053428	          0.00999999	          0.00999999	          0.06110819	          0.06576618	          0.18620474	
